<?xml version="1.0" encoding="UTF-8" standalone="no"?>
<!DOCTYPE svg PUBLIC "-//W3C//DTD SVG 1.1//EN"
 "http://www.w3.org/Graphics/SVG/1.1/DTD/svg11.dtd">
<!-- Generated by graphviz version 2.40.1 (20161225.0304)
 -->
<!-- Title: conda_concepts Pages: 1 -->
<svg width="317pt" height="390pt"
 viewBox="0.00 0.00 317.42 390.00" xmlns="http://www.w3.org/2000/svg" xmlns:xlink="http://www.w3.org/1999/xlink">
<g id="graph0" class="graph" transform="scale(1 1) rotate(0) translate(4 386)">
<title>conda_concepts</title>
<polygon fill="#ffffff" stroke="transparent" points="-4,4 -4,-386 313.4175,-386 313.4175,4 -4,4"/>
<!-- Makefile -->
<g id="node1" class="node">
<title>Makefile</title>
<polygon fill="none" stroke="#000000" points="120.454,-382 54.9219,-382 54.9219,-346 120.454,-346 120.454,-382"/>
<text text-anchor="middle" x="87.688" y="-359.8" font-family="Times,serif" font-size="14.00" fill="#000000">Makefile</text>
</g>
<!-- i01 -->
<g id="node11" class="node">
<title>i01</title>
<ellipse fill="#000000" stroke="#000000" cx="87.688" cy="-296" rx="0" ry="0"/>
</g>
<!-- Makefile&#45;&gt;i01 -->
<g id="edge2" class="edge">
<title>Makefile&#45;&gt;i01</title>
<path fill="none" stroke="#000000" d="M87.688,-345.7772C87.688,-326.2643 87.688,-297.8429 87.688,-296.0856"/>
<text text-anchor="middle" x="107.519" y="-316.8" font-family="Times,serif" font-size="14.00" fill="#000000">defines</text>
</g>
<!-- macros -->
<g id="node2" class="node">
<title>macros</title>
<polygon fill="none" stroke="#000000" points="71.1174,-259 14.2586,-259 14.2586,-223 71.1174,-223 71.1174,-259"/>
<text text-anchor="middle" x="42.688" y="-236.8" font-family="Times,serif" font-size="14.00" fill="#000000">macros</text>
</g>
<!-- rules -->
<g id="node3" class="node">
<title>rules</title>
<polygon fill="none" stroke="#000000" points="161.688,-259 107.688,-259 107.688,-223 161.688,-223 161.688,-259"/>
<text text-anchor="middle" x="134.688" y="-236.8" font-family="Times,serif" font-size="14.00" fill="#000000">rules</text>
</g>
<!-- macros&#45;&gt;rules -->
<!-- rules&#45;&gt;macros -->
<g id="edge7" class="edge">
<title>rules&#45;&gt;macros</title>
<path fill="none" stroke="#000000" d="M107.5302,-241C99.2726,-241 90.0358,-241 81.1804,-241"/>
<polygon fill="#000000" stroke="#000000" points="81.0417,-237.5001 71.0417,-241 81.0417,-244.5001 81.0417,-237.5001"/>
<text text-anchor="middle" x="89.2949" y="-246.8" font-family="Times,serif" font-size="14.00" fill="#000000">use</text>
</g>
<!-- commands -->
<g id="node4" class="node">
<title>commands</title>
<polygon fill="none" stroke="#000000" points="295.844,-259 219.5319,-259 219.5319,-223 295.844,-223 295.844,-259"/>
<text text-anchor="middle" x="257.688" y="-236.8" font-family="Times,serif" font-size="14.00" fill="#000000">commands</text>
</g>
<!-- rules&#45;&gt;commands -->
<g id="edge8" class="edge">
<title>rules&#45;&gt;commands</title>
<path fill="none" stroke="#000000" d="M161.9857,-241C175.8034,-241 192.9986,-241 208.9864,-241"/>
<polygon fill="#000000" stroke="#000000" points="209.2707,-244.5001 219.2707,-241 209.2707,-237.5001 209.2707,-244.5001"/>
<text text-anchor="middle" x="190.5242" y="-246.8" font-family="Times,serif" font-size="14.00" fill="#000000">specify</text>
</g>
<!-- patterns -->
<g id="node5" class="node">
<title>patterns</title>
<polygon fill="none" stroke="#000000" points="67.0062,-173 6.3698,-173 6.3698,-137 67.0062,-137 67.0062,-173"/>
<text text-anchor="middle" x="36.688" y="-150.8" font-family="Times,serif" font-size="14.00" fill="#000000">patterns</text>
</g>
<!-- rules&#45;&gt;patterns -->
<g id="edge6" class="edge">
<title>rules&#45;&gt;patterns</title>
<path fill="none" stroke="#000000" d="M113.9047,-222.7616C99.7424,-210.3335 80.8097,-193.719 65.2361,-180.0524"/>
<polygon fill="#000000" stroke="#000000" points="67.2662,-177.1773 57.4413,-173.2121 62.649,-182.4387 67.2662,-177.1773"/>
<text text-anchor="middle" x="101.019" y="-193.8" font-family="Times,serif" font-size="14.00" fill="#000000">use</text>
</g>
<!-- files -->
<g id="node6" class="node">
<title>files</title>
<polygon fill="none" stroke="#000000" points="172.688,-173 118.688,-173 118.688,-137 172.688,-137 172.688,-173"/>
<text text-anchor="middle" x="145.688" y="-150.8" font-family="Times,serif" font-size="14.00" fill="#000000">files</text>
</g>
<!-- rules&#45;&gt;files -->
<g id="edge5" class="edge">
<title>rules&#45;&gt;files</title>
<path fill="none" stroke="#000000" d="M137.0208,-222.7616C138.4792,-211.3597 140.3883,-196.4342 142.0434,-183.494"/>
<polygon fill="#000000" stroke="#000000" points="145.5614,-183.5754 143.3585,-173.2121 138.618,-182.6872 145.5614,-183.5754"/>
<text text-anchor="middle" x="161.9019" y="-193.8" font-family="Times,serif" font-size="14.00" fill="#000000">specify</text>
</g>
<!-- patterns&#45;&gt;files -->
<g id="edge13" class="edge">
<title>patterns&#45;&gt;files</title>
<path fill="none" stroke="#000000" d="M67.0506,-155C79.7751,-155 94.6994,-155 108.1072,-155"/>
<polygon fill="#000000" stroke="#000000" points="108.4639,-158.5001 118.4639,-155 108.4638,-151.5001 108.4639,-158.5001"/>
<text text-anchor="middle" x="92.7673" y="-160.8" font-family="Times,serif" font-size="14.00" fill="#000000">match</text>
</g>
<!-- i03 -->
<g id="node12" class="node">
<title>i03</title>
<ellipse fill="#000000" stroke="#000000" cx="145.688" cy="-80" rx="0" ry="0"/>
</g>
<!-- files&#45;&gt;i03 -->
<g id="edge9" class="edge">
<title>files&#45;&gt;i03</title>
<path fill="none" stroke="#000000" d="M145.688,-136.8446C145.688,-115.3418 145.688,-82.1533 145.688,-80.1001"/>
<text text-anchor="middle" x="166.0967" y="-107.8" font-family="Times,serif" font-size="14.00" fill="#000000">may be</text>
</g>
<!-- dependencies -->
<g id="node7" class="node">
<title>dependencies</title>
<polygon fill="none" stroke="#000000" points="303.5961,-36 211.7799,-36 211.7799,0 303.5961,0 303.5961,-36"/>
<text text-anchor="middle" x="257.688" y="-13.8" font-family="Times,serif" font-size="14.00" fill="#000000">dependencies</text>
</g>
<!-- execution order -->
<g id="node10" class="node">
<title>execution order</title>
<polygon fill="none" stroke="#000000" points="309.648,-173 205.728,-173 205.728,-137 309.648,-137 309.648,-173"/>
<text text-anchor="middle" x="257.688" y="-150.8" font-family="Times,serif" font-size="14.00" fill="#000000">execution order</text>
</g>
<!-- dependencies&#45;&gt;execution order -->
<g id="edge14" class="edge">
<title>dependencies&#45;&gt;execution order</title>
<path fill="none" stroke="#000000" d="M257.688,-36.2678C257.688,-59.4372 257.688,-99.6329 257.688,-126.764"/>
<polygon fill="#000000" stroke="#000000" points="254.1881,-126.8074 257.688,-136.8075 261.1881,-126.8075 254.1881,-126.8074"/>
<text text-anchor="middle" x="274.0225" y="-75.8" font-family="Times,serif" font-size="14.00" fill="#000000">imply</text>
</g>
<!-- source files -->
<g id="node8" class="node">
<title>source files</title>
<polygon fill="none" stroke="#000000" points="79.5649,-36 -.1889,-36 -.1889,0 79.5649,0 79.5649,-36"/>
<text text-anchor="middle" x="39.688" y="-13.8" font-family="Times,serif" font-size="14.00" fill="#000000">source files</text>
</g>
<!-- generated files -->
<g id="node9" class="node">
<title>generated files</title>
<polygon fill="none" stroke="#000000" points="194.4334,-36 96.9426,-36 96.9426,0 194.4334,0 194.4334,-36"/>
<text text-anchor="middle" x="145.688" y="-13.8" font-family="Times,serif" font-size="14.00" fill="#000000">generated files</text>
</g>
<!-- execution order&#45;&gt;commands -->
<g id="edge15" class="edge">
<title>execution order&#45;&gt;commands</title>
<path fill="none" stroke="#000000" d="M257.688,-173.2121C257.688,-184.6086 257.688,-199.5329 257.688,-212.4762"/>
<polygon fill="#000000" stroke="#000000" points="254.1881,-212.7616 257.688,-222.7616 261.1881,-212.7616 254.1881,-212.7616"/>
<text text-anchor="middle" x="263.519" y="-193.8" font-family="Times,serif" font-size="14.00" fill="#000000">of</text>
</g>
<!-- i01&#45;&gt;macros -->
<g id="edge4" class="edge">
<title>i01&#45;&gt;macros</title>
<path fill="none" stroke="#000000" d="M87.5589,-295.8422C86.244,-294.2351 75.1035,-280.6189 64.2533,-267.3576"/>
<polygon fill="#000000" stroke="#000000" points="66.6667,-264.7802 57.6255,-259.2569 61.249,-269.2128 66.6667,-264.7802"/>
</g>
<!-- i01&#45;&gt;rules -->
<g id="edge3" class="edge">
<title>i01&#45;&gt;rules</title>
<path fill="none" stroke="#000000" d="M87.8228,-295.8422C89.2091,-294.22 101.0523,-280.3609 112.4849,-266.9824"/>
<polygon fill="#000000" stroke="#000000" points="115.2509,-269.133 119.0866,-259.2569 109.9293,-264.5854 115.2509,-269.133"/>
</g>
<!-- i03&#45;&gt;dependencies -->
<g id="edge12" class="edge">
<title>i03&#45;&gt;dependencies</title>
<path fill="none" stroke="#000000" d="M145.7692,-79.9551C147.7346,-78.8671 185.0084,-58.2334 216.0071,-41.0733"/>
<polygon fill="#000000" stroke="#000000" points="217.9098,-44.0206 224.9636,-36.1153 214.5195,-37.8964 217.9098,-44.0206"/>
</g>
<!-- i03&#45;&gt;source files -->
<g id="edge10" class="edge">
<title>i03&#45;&gt;source files</title>
<path fill="none" stroke="#000000" d="M145.6112,-79.9551C143.759,-78.8717 108.7762,-58.4101 79.514,-41.2945"/>
<polygon fill="#000000" stroke="#000000" points="81.0583,-38.143 70.6593,-36.1153 77.5241,-44.1853 81.0583,-38.143"/>
</g>
<!-- i03&#45;&gt;generated files -->
<g id="edge11" class="edge">
<title>i03&#45;&gt;generated files</title>
<path fill="none" stroke="#000000" d="M145.688,-79.9551C145.688,-78.9745 145.688,-62.1165 145.688,-46.2345"/>
<polygon fill="#000000" stroke="#000000" points="149.1881,-46.1152 145.688,-36.1153 142.1881,-46.1153 149.1881,-46.1152"/>
</g>
</g>
</svg>
